<svg width="30" height="30" viewBox="0 0 30 30" fill="none" xmlns="http://www.w3.org/2000/svg">
<path d="M12.3327 2.2866C13.8965 1.38372 15.8233 1.38372 17.3871 2.2866L24.6361 6.47184C26.2 7.37472 27.1634 9.04333 27.1634 10.8491V19.2196C27.1634 21.0253 26.2 22.6939 24.6361 23.5968L17.3871 27.7821C15.8233 28.6849 13.8965 28.6849 12.3327 27.7821L5.08364 23.5968C3.5198 22.6939 2.55643 21.0253 2.55643 19.2196V10.8491C2.55643 9.04333 3.5198 7.37472 5.08364 6.47184L12.3327 2.2866Z" fill="#0101BA"/>
<path fill-rule="evenodd" clip-rule="evenodd" d="M11.7586 22.4731L9.87407 7.59545L17.8361 9.08322C18.1745 9.17698 18.4879 9.25235 18.7765 9.32176C19.8616 9.58275 20.5957 9.75932 20.9926 10.5115C21.4952 11.457 21.7464 12.6208 21.7464 14.0028C21.7464 15.3914 21.4952 16.5584 20.9926 17.504C20.4901 18.4496 19.438 18.9223 17.8361 18.9223H14.3875L15.047 22.4731H11.7586ZM12.7951 10.6702L17.092 11.4649C17.2747 11.5149 17.4438 11.5552 17.5996 11.5923C18.1851 11.7317 18.5813 11.826 18.7956 12.2278C19.0667 12.7328 19.2024 13.3545 19.2024 14.0926C19.2024 14.8344 19.0667 15.4577 18.7956 15.9628C18.5244 16.4679 17.9565 16.7205 17.092 16.7205H15.1291L13.9463 16.6212L12.7951 10.6702Z" fill="white"/>
</svg>
