<svg width="30" height="30" viewBox="0 0 30 30" fill="none" xmlns="http://www.w3.org/2000/svg">
<path d="M12.5033 2.2866C14.0671 1.38372 15.9939 1.38372 17.5577 2.2866L24.8067 6.47184C26.3706 7.37472 27.334 9.04333 27.334 10.8491V19.2196C27.334 21.0253 26.3706 22.6939 24.8067 23.5968L17.5577 27.7821C15.9939 28.6849 14.0671 28.6849 12.5033 27.7821L5.25424 23.5968C3.69039 22.6939 2.72702 21.0253 2.72702 19.2196V10.8491C2.72702 9.04333 3.69039 7.37472 5.25423 6.47184L12.5033 2.2866Z" fill="#F72585"/>
<path d="M23.5093 9.2535H21.2135H18.563H16.2623V9.2583L15.0305 11.2043L13.7987 9.2583V9.2535H11.4981H8.85232H6.55168L7.77869 11.1947L12.61 18.8299L13.7604 17.0134L10.0793 11.1947H12.7251L13.8802 13.0208L15.0305 14.8374L16.1808 13.0208L17.3359 11.1947H19.9817L15.7111 17.948L13.861 20.8765L15.0065 22.6931L18.3712 17.3824L22.2823 11.1947L23.5093 9.2535Z" fill="white"/>
</svg>
