<svg width="31" height="29" viewBox="0 0 31 29" fill="none" xmlns="http://www.w3.org/2000/svg">
<path d="M11.8773 3.14048C11.8773 2.75293 12.1012 2.40029 12.452 2.23545L14.986 1.04449C15.1191 0.981951 15.2643 0.949524 15.4114 0.949524H16.5731C16.7201 0.949524 16.8652 0.981899 16.9982 1.04435L19.535 2.23554C19.8859 2.40031 20.11 2.75305 20.11 3.14072V26.7665C20.11 27.154 19.8861 27.5066 19.5354 27.6714L17.019 28.8545C16.8859 28.9171 16.7406 28.9495 16.5936 28.9495H15.3937C15.2466 28.9495 15.1014 28.9171 14.9683 28.8545L12.4519 27.6714C12.1012 27.5066 11.8773 27.154 11.8773 26.7665V3.14048Z" fill="url(#paint0_linear_359_47)"/>
<path opacity="0.7" d="M26.5543 4.39019C26.5543 4.06282 26.3941 3.75618 26.1253 3.56925L24.8022 2.64891C24.6346 2.53233 24.4353 2.46985 24.2312 2.46985H23.882C23.678 2.46985 23.4789 2.53225 23.3113 2.64867L21.9866 3.56927C21.7177 3.75618 21.5573 4.06294 21.5573 4.39045V25.7096C21.5573 26.0369 21.7175 26.3435 21.9861 26.5304L23.2986 27.4437C23.4662 27.5603 23.6656 27.6228 23.8698 27.6228H24.2418C24.446 27.6228 24.6454 27.5603 24.813 27.4437L26.1255 26.5304C26.3941 26.3435 26.5543 26.0369 26.5543 25.7096V4.39019Z" fill="url(#paint1_linear_359_47)"/>
<path opacity="0.7" d="M5.43329 4.39019C5.43329 4.06282 5.59352 3.75618 5.86227 3.56925L7.18542 2.64891C7.35301 2.53233 7.55228 2.46985 7.75643 2.46985H8.10561C8.30962 2.46985 8.50875 2.53225 8.67628 2.64867L10.001 3.56927C10.2699 3.75618 10.4303 4.06294 10.4303 4.39045V25.7096C10.4303 26.0369 10.2701 26.3435 10.0015 26.5304L8.68898 27.4437C8.52136 27.5603 8.32205 27.6228 8.11784 27.6228H7.74577C7.54156 27.6228 7.34225 27.5603 7.17462 27.4437L5.86214 26.5304C5.59347 26.3435 5.43329 26.0369 5.43329 25.7096V4.39019Z" fill="url(#paint2_linear_359_47)"/>
<path opacity="0.4" d="M31 5.45292C31 5.11028 30.8246 4.79149 30.5351 4.60814L29.1773 3.74804C29.0552 3.67074 28.9137 3.6297 28.7693 3.6297C28.3511 3.6297 28.011 3.96649 28.0069 4.38462L28.0018 4.90261V25.2691V25.761C28.0018 26.1888 28.3486 26.5356 28.7764 26.5356C28.9232 26.5356 29.067 26.4939 29.191 26.4153L30.5352 25.5636C30.8246 25.3802 31 25.0614 31 24.7189V5.45292Z" fill="url(#paint3_linear_359_47)"/>
<path opacity="0.4" d="M0.987549 5.45292C0.987549 5.11028 1.16298 4.79149 1.45244 4.60814L2.81028 3.74804C2.93232 3.67074 3.07381 3.6297 3.21827 3.6297C3.63641 3.6297 3.97654 3.96649 3.98066 4.38462L3.98577 4.90261V25.2691V25.761C3.98577 26.1888 3.63895 26.5356 3.21113 26.5356C3.06431 26.5356 2.92052 26.4939 2.7965 26.4153L1.45231 25.5636C1.16292 25.3802 0.987549 25.0614 0.987549 24.7189V5.45292Z" fill="url(#paint4_linear_359_47)"/>
<defs>
<linearGradient id="paint0_linear_359_47" x1="15.9936" y1="0.949524" x2="15.9936" y2="28.9495" gradientUnits="userSpaceOnUse">
<stop stop-color="#FFCD6C"/>
<stop offset="1" stop-color="#E79B08"/>
</linearGradient>
<linearGradient id="paint1_linear_359_47" x1="24.0558" y1="2.46985" x2="24.0558" y2="27.6228" gradientUnits="userSpaceOnUse">
<stop stop-color="#FFCD6C"/>
<stop offset="1" stop-color="#E79B08"/>
</linearGradient>
<linearGradient id="paint2_linear_359_47" x1="7.9318" y1="2.46985" x2="7.9318" y2="27.6228" gradientUnits="userSpaceOnUse">
<stop stop-color="#FFCD6C"/>
<stop offset="1" stop-color="#E79B08"/>
</linearGradient>
<linearGradient id="paint3_linear_359_47" x1="29.5009" y1="3.6297" x2="29.5009" y2="26.5356" gradientUnits="userSpaceOnUse">
<stop stop-color="#FFCD6C"/>
<stop offset="1" stop-color="#E79B08"/>
</linearGradient>
<linearGradient id="paint4_linear_359_47" x1="2.48666" y1="3.6297" x2="2.48666" y2="26.5356" gradientUnits="userSpaceOnUse">
<stop stop-color="#FFCD6C"/>
<stop offset="1" stop-color="#E79B08"/>
</linearGradient>
</defs>
</svg>
