<svg width="247" height="29" viewBox="0 0 247 29" fill="none" xmlns="http://www.w3.org/2000/svg">
<path d="M55.659 6.25958V23.6396H51.4811L45.3337 13.9409V23.6396H41.1439V8.26488L39.7702 6.25958H45.3337L51.4811 15.9582V6.25958H55.659Z" fill="black"/>
<path d="M62.4988 6.25958V23.6396H58.309V8.27367L56.9353 6.25958H62.4988ZM69.255 13.4933V16.7162H61.3051V13.4933H69.255ZM69.9354 6.25958V9.49446H61.3051V6.25958H69.9354Z" fill="black"/>
<path d="M80.3324 6.25958V23.6396H76.1426V6.25958H80.3324ZM85.5607 6.25958V10.8681L83.5741 9.49446H73.1327L71.0336 10.8681V6.25958H85.5607Z" fill="black"/>
<path d="M123.794 20.0372V23.6395H114.78V20.0372H123.794ZM116.232 6.25952V23.6395H112.154V8.20428L110.818 6.25952H116.232ZM122.633 12.9741V16.0061H114.78V12.9741H122.633ZM123.829 6.25952V9.4077H114.78V6.25952H123.829Z" fill="black"/>
<path d="M153.392 20.0372V23.6286H144.377V20.0372H153.392ZM145.829 6.25952V23.6286H141.752V8.20428L140.415 6.25952H145.829ZM152.23 12.9741V16.0061H144.377V12.9741H152.23ZM153.427 6.25952V9.4077H144.377V6.25952H153.427Z" fill="black"/>
<path d="M109.004 6.25952V23.6384H104.827L98.6798 12.8243V23.6384H94.4902V8.31758L93.2919 6.25952H98.6798L104.827 17.0736V8.32556L103.629 6.25952H109.004Z" fill="black"/>
<path d="M154.423 6.25952H162.461C163.798 6.25952 164.959 6.45846 165.946 6.85632C166.933 7.25419 167.693 7.84304 168.226 8.62286C168.767 9.40268 169.038 10.3655 169.038 11.5114C169.038 12.506 168.882 13.3376 168.572 14.006C168.262 14.6744 167.828 15.2275 167.271 15.6651C166.722 16.0948 166.081 16.4489 165.349 16.7274L163.977 17.5033H158.235L158.212 14.2686H162.461C162.994 14.2686 163.436 14.1731 163.786 13.9821C164.136 13.7912 164.398 13.5206 164.573 13.1705C164.756 12.8124 164.848 12.3867 164.848 11.8933C164.848 11.392 164.756 10.9623 164.573 10.6042C164.39 10.2462 164.12 9.97163 163.762 9.78065C163.412 9.58967 162.978 9.49419 162.461 9.49419H159.811V23.6384H155.621V8.33695L154.423 6.25952ZM165.134 23.6384L161.291 15.9516L165.731 15.9277L169.622 23.4593V23.6384H165.134Z" fill="black"/>
<path d="M139.419 6.25952H135.508L132.576 15.8843L129.645 6.25952H124.826L126.396 8.19324L131.341 23.6041H133.812L139.419 6.25952Z" fill="black"/>
<path d="M204.314 20.4962V23.6302H195.771V20.4962H204.314ZM197.222 6.25952V23.6302H193.148V8.21127L191.812 6.25952H197.222Z" fill="black"/>
<path d="M186.605 18.9C186.605 18.6369 186.566 18.4009 186.489 18.1919C186.411 17.9753 186.268 17.7741 186.059 17.5883C185.85 17.4026 185.548 17.2169 185.154 17.0312C184.767 16.8377 184.256 16.6365 183.622 16.4276C182.879 16.18 182.163 15.9014 181.474 15.5919C180.785 15.2746 180.17 14.907 179.629 14.4892C179.087 14.0636 178.657 13.5683 178.34 13.0034C178.023 12.4308 177.864 11.7653 177.864 11.007C177.864 10.2796 178.027 9.62567 178.352 9.0453C178.677 8.45719 179.129 7.95807 179.71 7.54794C180.298 7.13008 180.987 6.81281 181.776 6.59614C182.565 6.37173 183.428 6.25952 184.364 6.25952C185.603 6.25952 186.694 6.47619 187.638 6.90954C188.589 7.33514 189.332 7.9426 189.866 8.7319C190.408 9.51346 190.679 10.4382 190.679 11.5061L188.653 12.8418L186.628 11.5061C186.628 11.0805 186.539 10.7052 186.361 10.3802C186.191 10.0551 185.931 9.79978 185.583 9.61406C185.235 9.42834 184.798 9.33548 184.272 9.33548C183.761 9.33548 183.331 9.41287 182.983 9.56763C182.635 9.7224 182.372 9.93133 182.194 10.1944C182.016 10.4498 181.927 10.7322 181.927 11.0418C181.927 11.2971 181.996 11.5293 182.136 11.7382C182.283 11.9394 182.488 12.129 182.751 12.307C183.022 12.485 183.347 12.6552 183.726 12.8177C184.113 12.9802 184.546 13.1388 185.026 13.2936C185.924 13.5799 186.721 13.9011 187.417 14.257C188.121 14.6052 188.713 15.0038 189.193 15.4526C189.681 15.8937 190.048 16.3967 190.296 16.9615C190.551 17.5264 190.679 18.1649 190.679 18.8768C190.679 19.6351 190.532 20.3084 190.238 20.8965C189.944 21.4846 189.522 21.9837 188.973 22.3938C188.423 22.7962 187.765 23.1019 186.999 23.3108C186.233 23.5197 185.378 23.6242 184.434 23.6242C183.567 23.6242 182.712 23.5159 181.869 23.2992C181.033 23.0748 180.275 22.7343 179.594 22.2777C178.913 21.8134 178.367 21.2215 177.957 20.5018C177.555 19.7744 177.354 18.9116 177.354 17.9134L179.396 16.5776L181.439 17.9134C181.439 18.4086 181.505 18.8265 181.637 19.167C181.768 19.5074 181.962 19.7821 182.217 19.9911C182.472 20.1923 182.786 20.3393 183.157 20.4322C183.529 20.5173 183.954 20.5598 184.434 20.5598C184.953 20.5598 185.37 20.4863 185.688 20.3393C186.005 20.1845 186.237 19.9833 186.384 19.7357C186.531 19.4804 186.605 19.2018 186.605 18.9Z" fill="black"/>
<path d="M217.28 20.5055V23.6395H208.273V20.5055H217.28ZM209.724 6.25952V23.6395H205.65V8.20269L204.314 6.25952H209.724ZM216.12 12.9686V15.9981H208.273V12.9686H216.12ZM217.315 6.25952V9.40513H208.273V6.25952H217.315Z" fill="black"/>
<path d="M231.346 20.5055V23.6395H222.339V20.5055H231.346ZM223.789 6.25952V23.6395H219.715V8.20269L218.38 6.25952H223.789ZM230.185 12.9686V15.9981H222.339V12.9686H230.185ZM231.381 6.25952V9.40513H222.339V6.25952H231.381Z" fill="black"/>
<path d="M246.072 11.6738C246.072 8.72277 243.926 6.25952 240.341 6.25952H232.445L233.61 8.66809V23.6242H237V17.0881H240.341C243.926 17.0881 246.072 14.6248 246.072 11.6738ZM242.682 11.6738C242.682 13.0883 241.707 14.0395 240.17 14.0395H237V9.28371H240.17C241.707 9.28371 242.682 10.2593 242.682 11.6738Z" fill="black"/>
<path d="M11.8773 3.14048C11.8773 2.75293 12.1012 2.40029 12.452 2.23545L14.986 1.04449C15.1191 0.981951 15.2643 0.949524 15.4114 0.949524H16.5731C16.7201 0.949524 16.8652 0.981899 16.9982 1.04435L19.535 2.23554C19.8859 2.40031 20.11 2.75305 20.11 3.14072V26.7665C20.11 27.154 19.8861 27.5066 19.5354 27.6714L17.019 28.8545C16.8859 28.9171 16.7406 28.9495 16.5936 28.9495H15.3937C15.2466 28.9495 15.1014 28.9171 14.9683 28.8545L12.4519 27.6714C12.1012 27.5066 11.8773 27.154 11.8773 26.7665V3.14048Z" fill="url(#paint0_linear_466_140)"/>
<path opacity="0.7" d="M26.5543 4.39019C26.5543 4.06282 26.3941 3.75618 26.1253 3.56925L24.8022 2.64891C24.6346 2.53233 24.4353 2.46985 24.2312 2.46985H23.882C23.678 2.46985 23.4789 2.53225 23.3113 2.64867L21.9866 3.56927C21.7177 3.75618 21.5573 4.06294 21.5573 4.39045V25.7096C21.5573 26.0369 21.7175 26.3435 21.9861 26.5304L23.2986 27.4437C23.4662 27.5603 23.6656 27.6228 23.8698 27.6228H24.2418C24.446 27.6228 24.6454 27.5603 24.813 27.4437L26.1255 26.5304C26.3941 26.3435 26.5543 26.0369 26.5543 25.7096V4.39019Z" fill="url(#paint1_linear_466_140)"/>
<path opacity="0.7" d="M5.43329 4.39019C5.43329 4.06282 5.59352 3.75618 5.86227 3.56925L7.18542 2.64891C7.35301 2.53233 7.55228 2.46985 7.75643 2.46985H8.10561C8.30962 2.46985 8.50875 2.53225 8.67628 2.64867L10.001 3.56927C10.2699 3.75618 10.4303 4.06294 10.4303 4.39045V25.7096C10.4303 26.0369 10.2701 26.3435 10.0015 26.5304L8.68898 27.4437C8.52136 27.5603 8.32205 27.6228 8.11784 27.6228H7.74577C7.54156 27.6228 7.34225 27.5603 7.17462 27.4437L5.86214 26.5304C5.59347 26.3435 5.43329 26.0369 5.43329 25.7096V4.39019Z" fill="url(#paint2_linear_466_140)"/>
<path opacity="0.4" d="M31 5.45292C31 5.11028 30.8246 4.79149 30.5351 4.60814L29.1773 3.74804C29.0552 3.67074 28.9137 3.6297 28.7693 3.6297C28.3511 3.6297 28.011 3.96649 28.0069 4.38462L28.0018 4.90261V25.2691V25.761C28.0018 26.1888 28.3486 26.5356 28.7764 26.5356C28.9232 26.5356 29.067 26.4939 29.191 26.4153L30.5352 25.5636C30.8246 25.3802 31 25.0614 31 24.7189V5.45292Z" fill="url(#paint3_linear_466_140)"/>
<path opacity="0.4" d="M0.987549 5.45292C0.987549 5.11028 1.16298 4.79149 1.45244 4.60814L2.81028 3.74804C2.93232 3.67074 3.07381 3.6297 3.21827 3.6297C3.63641 3.6297 3.97654 3.96649 3.98066 4.38462L3.98577 4.90261V25.2691V25.761C3.98577 26.1888 3.63895 26.5356 3.21113 26.5356C3.06431 26.5356 2.92052 26.4939 2.7965 26.4153L1.45231 25.5636C1.16292 25.3802 0.987549 25.0614 0.987549 24.7189V5.45292Z" fill="url(#paint4_linear_466_140)"/>
<defs>
<linearGradient id="paint0_linear_466_140" x1="15.9936" y1="0.949524" x2="15.9936" y2="28.9495" gradientUnits="userSpaceOnUse">
<stop stop-color="#FFCD6C"/>
<stop offset="1" stop-color="#E79B08"/>
</linearGradient>
<linearGradient id="paint1_linear_466_140" x1="24.0558" y1="2.46985" x2="24.0558" y2="27.6228" gradientUnits="userSpaceOnUse">
<stop stop-color="#FFCD6C"/>
<stop offset="1" stop-color="#E79B08"/>
</linearGradient>
<linearGradient id="paint2_linear_466_140" x1="7.9318" y1="2.46985" x2="7.9318" y2="27.6228" gradientUnits="userSpaceOnUse">
<stop stop-color="#FFCD6C"/>
<stop offset="1" stop-color="#E79B08"/>
</linearGradient>
<linearGradient id="paint3_linear_466_140" x1="29.5009" y1="3.6297" x2="29.5009" y2="26.5356" gradientUnits="userSpaceOnUse">
<stop stop-color="#FFCD6C"/>
<stop offset="1" stop-color="#E79B08"/>
</linearGradient>
<linearGradient id="paint4_linear_466_140" x1="2.48666" y1="3.6297" x2="2.48666" y2="26.5356" gradientUnits="userSpaceOnUse">
<stop stop-color="#FFCD6C"/>
<stop offset="1" stop-color="#E79B08"/>
</linearGradient>
</defs>
</svg>
