<svg width="165" height="29" viewBox="0 0 165 29" fill="none" xmlns="http://www.w3.org/2000/svg">
<path d="M58.624 6.54401V23.4562H54.5586L48.5766 14.0186V23.4562H44.4996V8.49533L43.1629 6.54401H48.5766L54.5586 15.9816V6.54401H58.624Z" fill="black"/>
<path d="M65.2797 6.54401V23.4562H61.2027V8.50388L59.866 6.54401H65.2797ZM71.8541 13.583V16.7192H64.1182V13.583H71.8541ZM72.5162 6.54401V9.69181H64.1182V6.54401H72.5162Z" fill="black"/>
<path d="M82.6333 6.54401V23.4562H78.5563V6.54401H82.6333ZM87.7209 6.54401V11.0285L85.7877 9.69181H75.6274L73.5848 11.0285V6.54401H87.7209Z" fill="black"/>
<path d="M105.853 20.32V23.4561H97.3037V20.32H105.853ZM98.7556 6.54396V23.4561H94.6786V8.49707L93.3419 6.54396H98.7556Z" fill="black"/>
<path d="M119.211 20.32V23.4561H110.197V20.32H119.211ZM111.649 6.54396V23.4561H107.572V8.48848L106.235 6.54396H111.649ZM118.049 13.2577V16.2894H110.197V13.2577H118.049ZM119.245 6.54396V9.69176H110.197V6.54396H119.245Z" fill="black"/>
<path d="M129.387 10.0983L125.263 23.4561H120.884L127.098 6.54396H129.874L129.387 10.0983ZM132.802 23.4561L128.666 10.0983L128.132 6.54396H130.943L137.192 23.4561H132.802ZM132.639 17.1489V20.2967L129.072 18.96L123.962 20.2967V17.1489L129.072 15.8122L132.639 17.1489Z" fill="black"/>
<path d="M147.147 18.9609C147.147 18.6977 147.108 18.4615 147.031 18.2524C146.953 18.0356 146.81 17.8342 146.601 17.6484C146.392 17.4625 146.09 17.2767 145.695 17.0908C145.308 16.8972 144.797 16.6959 144.162 16.4868C143.418 16.239 142.702 15.9603 142.013 15.6505C141.324 15.333 140.708 14.9652 140.166 14.547C139.624 14.1211 139.194 13.6255 138.877 13.0603C138.559 12.4872 138.4 11.8213 138.4 11.0624C138.4 10.3345 138.563 9.68014 138.888 9.09937C139.213 8.51085 139.666 8.01138 140.247 7.60097C140.836 7.18281 141.525 6.86532 142.315 6.6485C143.105 6.42393 143.968 6.31165 144.905 6.31165C146.144 6.31165 147.236 6.52847 148.181 6.96211C149.133 7.38802 149.876 7.99589 150.411 8.78575C150.953 9.56786 151.224 10.4932 151.224 11.5619L149.197 12.8985L147.17 11.5619C147.17 11.136 147.081 10.7604 146.903 10.4352C146.732 10.1099 146.473 9.85438 146.125 9.66853C145.776 9.48268 145.339 9.38976 144.812 9.38976C144.301 9.38976 143.871 9.46719 143.523 9.62207C143.174 9.77694 142.911 9.98602 142.733 10.2493C142.555 10.5048 142.466 10.7875 142.466 11.0972C142.466 11.3528 142.535 11.5851 142.675 11.7942C142.822 11.9955 143.027 12.1852 143.29 12.3633C143.561 12.5414 143.887 12.7118 144.266 12.8744C144.653 13.037 145.087 13.1958 145.567 13.3506C146.465 13.6372 147.263 13.9585 147.96 14.3147C148.665 14.6632 149.257 15.062 149.737 15.5111C150.225 15.9525 150.593 16.4559 150.84 17.0211C151.096 17.5864 151.224 18.2253 151.224 18.9377C151.224 19.6966 151.077 20.3703 150.782 20.9588C150.488 21.5473 150.066 22.0468 149.516 22.4572C148.967 22.8599 148.308 23.1658 147.542 23.3748C146.775 23.5839 145.919 23.6885 144.975 23.6885C144.107 23.6885 143.252 23.58 142.408 23.3632C141.571 23.1387 140.812 22.7979 140.131 22.3411C139.45 21.8764 138.904 21.284 138.493 20.5639C138.091 19.836 137.889 18.9726 137.889 17.9736L139.934 16.6369L141.978 17.9736C141.978 18.4692 142.044 18.8874 142.175 19.2281C142.307 19.5688 142.501 19.8437 142.756 20.0528C143.012 20.2541 143.325 20.4013 143.697 20.4942C144.069 20.5794 144.495 20.622 144.975 20.622C145.493 20.622 145.912 20.5484 146.229 20.4013C146.547 20.2464 146.779 20.0451 146.926 19.7973C147.073 19.5417 147.147 19.2629 147.147 18.9609Z" fill="black"/>
<path d="M164.965 20.32V23.4561H155.951V20.32H164.965ZM157.403 6.54396V23.4561H153.326V8.5297L151.99 6.54396H157.403ZM163.803 13.2577V16.2894H155.951V13.2577H163.803ZM165 6.54396V9.69176H155.951V6.54396H165Z" fill="black"/>
<path d="M11.8773 3.14048C11.8773 2.75293 12.1012 2.40029 12.452 2.23545L14.986 1.04449C15.1191 0.981951 15.2643 0.949524 15.4114 0.949524H16.5731C16.7201 0.949524 16.8652 0.981899 16.9982 1.04435L19.535 2.23554C19.8859 2.40031 20.11 2.75305 20.11 3.14072V26.7665C20.11 27.154 19.8861 27.5066 19.5354 27.6714L17.019 28.8545C16.8859 28.9171 16.7406 28.9495 16.5936 28.9495H15.3937C15.2466 28.9495 15.1014 28.9171 14.9683 28.8545L12.4519 27.6714C12.1012 27.5066 11.8773 27.154 11.8773 26.7665V3.14048Z" fill="url(#paint0_linear_359_50)"/>
<path opacity="0.7" d="M26.5543 4.39019C26.5543 4.06282 26.3941 3.75618 26.1253 3.56925L24.8022 2.64891C24.6346 2.53233 24.4353 2.46985 24.2312 2.46985H23.882C23.678 2.46985 23.4789 2.53225 23.3113 2.64867L21.9866 3.56927C21.7177 3.75618 21.5573 4.06294 21.5573 4.39045V25.7096C21.5573 26.0369 21.7175 26.3435 21.9861 26.5304L23.2986 27.4437C23.4662 27.5603 23.6656 27.6228 23.8698 27.6228H24.2418C24.446 27.6228 24.6454 27.5603 24.813 27.4437L26.1255 26.5304C26.3941 26.3435 26.5543 26.0369 26.5543 25.7096V4.39019Z" fill="url(#paint1_linear_359_50)"/>
<path opacity="0.7" d="M5.43329 4.39019C5.43329 4.06282 5.59352 3.75618 5.86227 3.56925L7.18542 2.64891C7.35301 2.53233 7.55228 2.46985 7.75643 2.46985H8.10561C8.30962 2.46985 8.50875 2.53225 8.67628 2.64867L10.001 3.56927C10.2699 3.75618 10.4303 4.06294 10.4303 4.39045V25.7096C10.4303 26.0369 10.2701 26.3435 10.0015 26.5304L8.68898 27.4437C8.52136 27.5603 8.32205 27.6228 8.11784 27.6228H7.74577C7.54156 27.6228 7.34225 27.5603 7.17462 27.4437L5.86214 26.5304C5.59347 26.3435 5.43329 26.0369 5.43329 25.7096V4.39019Z" fill="url(#paint2_linear_359_50)"/>
<path opacity="0.4" d="M31 5.45292C31 5.11028 30.8246 4.79149 30.5351 4.60814L29.1773 3.74804C29.0552 3.67074 28.9137 3.6297 28.7693 3.6297C28.3511 3.6297 28.011 3.96649 28.0069 4.38462L28.0018 4.90261V25.2691V25.761C28.0018 26.1888 28.3486 26.5356 28.7764 26.5356C28.9232 26.5356 29.067 26.4939 29.191 26.4153L30.5352 25.5636C30.8246 25.3802 31 25.0614 31 24.7189V5.45292Z" fill="url(#paint3_linear_359_50)"/>
<path opacity="0.4" d="M0.987549 5.45292C0.987549 5.11028 1.16298 4.79149 1.45244 4.60814L2.81028 3.74804C2.93232 3.67074 3.07381 3.6297 3.21827 3.6297V3.6297C3.63641 3.6297 3.97654 3.96649 3.98066 4.38462L3.98577 4.90261V25.2691V25.761C3.98577 26.1888 3.63895 26.5356 3.21113 26.5356V26.5356C3.06431 26.5356 2.92052 26.4939 2.7965 26.4153L1.45231 25.5636C1.16292 25.3802 0.987549 25.0614 0.987549 24.7189V5.45292Z" fill="url(#paint4_linear_359_50)"/>
<defs>
<linearGradient id="paint0_linear_359_50" x1="15.9936" y1="0.949524" x2="15.9936" y2="28.9495" gradientUnits="userSpaceOnUse">
<stop stop-color="#FFCD6C"/>
<stop offset="1" stop-color="#E79B08"/>
</linearGradient>
<linearGradient id="paint1_linear_359_50" x1="24.0558" y1="2.46985" x2="24.0558" y2="27.6228" gradientUnits="userSpaceOnUse">
<stop stop-color="#FFCD6C"/>
<stop offset="1" stop-color="#E79B08"/>
</linearGradient>
<linearGradient id="paint2_linear_359_50" x1="7.9318" y1="2.46985" x2="7.9318" y2="27.6228" gradientUnits="userSpaceOnUse">
<stop stop-color="#FFCD6C"/>
<stop offset="1" stop-color="#E79B08"/>
</linearGradient>
<linearGradient id="paint3_linear_359_50" x1="29.5009" y1="3.6297" x2="29.5009" y2="26.5356" gradientUnits="userSpaceOnUse">
<stop stop-color="#FFCD6C"/>
<stop offset="1" stop-color="#E79B08"/>
</linearGradient>
<linearGradient id="paint4_linear_359_50" x1="2.48666" y1="3.6297" x2="2.48666" y2="26.5356" gradientUnits="userSpaceOnUse">
<stop stop-color="#FFCD6C"/>
<stop offset="1" stop-color="#E79B08"/>
</linearGradient>
</defs>
</svg>
