<svg width="57" height="60" viewBox="0 0 57 60" fill="none" xmlns="http://www.w3.org/2000/svg">
<rect x="2.77527" y="2.29036" width="42.4851" height="54.332" rx="5.57784" fill="#F7941D"/>
<rect x="0.915894" y="0.431091" width="42.4851" height="54.332" rx="5.57784" fill="#FFDE53"/>
<rect x="7.18579" y="21.3928" width="26.1467" height="3.71856" rx="1.85928" fill="#FFF5D7"/>
<rect x="7.18579" y="29.8383" width="20.9174" height="3.71856" rx="1.85928" fill="#FFF5D7"/>
<rect x="7.18579" y="38.2845" width="14.526" height="3.71856" rx="1.85928" fill="#FFF5D7"/>
<path d="M15.8184 6.26936L13.5706 9.60893C13.4151 9.83636 13.714 10.1117 13.9293 9.92015L16.1412 7.99301C16.201 7.94513 16.2847 7.98104 16.2847 8.06483V14.0856C16.2847 14.1694 16.1771 14.2053 16.1293 14.1455L9.43362 6.12572C9.2184 5.86239 8.90753 5.71875 8.56079 5.71875H8.32166C7.69992 5.71875 7.18579 6.23345 7.18579 6.86785V15.3425C7.18579 15.9769 7.69992 16.4916 8.33362 16.4916C8.72818 16.4916 9.09883 16.2881 9.31405 15.941L11.5619 12.6014C11.7173 12.374 11.4184 12.0987 11.2032 12.2902L8.99122 14.2053C8.93144 14.2532 8.84775 14.2173 8.84775 14.1335V8.12468C8.84775 8.04089 8.95536 8.00498 9.00318 8.06483L15.6988 16.0846C15.914 16.3479 16.2369 16.4916 16.5717 16.4916H16.8108C17.4445 16.4916 17.9586 15.9769 17.9586 15.3425V6.86785C17.9586 6.23345 17.4445 5.71875 16.8108 5.71875C16.4043 5.71875 16.0336 5.92224 15.8184 6.26936Z" fill="#FFF5D7"/>
<circle cx="41.9955" cy="44.9766" r="14.6625" fill="#FFF5D6"/>
<circle cx="42.0998" cy="44.3185" r="9.99326" fill="white"/>
<path d="M41.9697 33.6352C43.5471 33.6352 45.0215 33.9352 46.3932 34.5353C47.7648 35.1354 48.9649 35.9498 49.9936 36.9785C51.0223 38.0072 51.8367 39.2073 52.4368 40.5789C53.0369 41.9505 53.3369 43.4079 53.3369 44.9509C53.3369 46.5283 53.0369 48.0028 52.4368 49.3744C51.8367 50.746 51.0223 51.9462 49.9936 52.9749C48.9649 54.0036 47.7648 54.818 46.3932 55.418C45.0215 56.0181 43.5471 56.3182 41.9697 56.3182C40.4267 56.3182 38.9693 56.0181 37.5977 55.418C36.2261 54.818 35.0259 54.0036 33.9972 52.9749C32.9685 51.9462 32.1541 50.746 31.5541 49.3744C30.954 48.0028 30.6539 46.5283 30.6539 44.9509C30.6539 43.4079 30.954 41.9505 31.5541 40.5789C32.1541 39.2073 32.9685 38.0072 33.9972 36.9785C35.0259 35.9498 36.2261 35.1354 37.5977 34.5353C38.9693 33.9352 40.4267 33.6352 41.9697 33.6352ZM44.2329 45.0024L47.6276 41.6076C47.9362 41.299 48.0905 40.9218 48.0905 40.4761C48.0905 40.0303 47.9362 39.6531 47.6276 39.3445C47.319 39.0359 46.9418 38.8816 46.496 38.8816C46.0503 38.8816 45.6731 39.0359 45.3645 39.3445L41.9697 42.7392L38.5235 39.3445C38.2149 39.0359 37.8377 38.8816 37.392 38.8816C36.9462 38.8816 36.569 39.0359 36.2604 39.3445C35.9518 39.6531 35.7975 40.0303 35.7975 40.4761C35.7975 40.9218 35.9518 41.299 36.2604 41.6076L39.6551 45.0024L36.2604 48.4486C35.9518 48.7572 35.7975 49.1344 35.7975 49.5801C35.7975 50.0259 35.9518 50.4031 36.2604 50.7117C36.569 51.0203 36.9462 51.1746 37.392 51.1746C37.8377 51.1746 38.2149 51.0203 38.5235 50.7117L41.9697 47.317L45.3645 50.7117C45.6731 51.0203 46.0503 51.1746 46.496 51.1746C46.9418 51.1746 47.319 51.0203 47.6276 50.7117C47.9362 50.4031 48.0905 50.0259 48.0905 49.5801C48.0905 49.1344 47.9362 48.7572 47.6276 48.4486L44.2329 45.0024Z" fill="#FECC00"/>
</svg>
